<mxfile host="Electron" modified="2024-11-26T02:16:06.871Z" agent="Mozilla/5.0 (Windows NT 10.0; Win64; x64) AppleWebKit/537.36 (KHTML, like Gecko) draw.io/22.1.21 Chrome/120.0.6099.109 Electron/28.1.0 Safari/537.36" etag="syROPzwT4S03EhGwUyrx" version="22.1.21" type="device">
  <diagram id="C5RBs43oDa-KdzZeNtuy" name="Page-1">
    <mxGraphModel dx="1290" dy="621" grid="1" gridSize="10" guides="1" tooltips="1" connect="1" arrows="1" fold="1" page="1" pageScale="1" pageWidth="827" pageHeight="1169" math="0" shadow="0">
      <root>
        <mxCell id="WIyWlLk6GJQsqaUBKTNV-0" />
        <mxCell id="WIyWlLk6GJQsqaUBKTNV-1" parent="WIyWlLk6GJQsqaUBKTNV-0" />
        <mxCell id="iwHmXx7_K-lUzod9Qs7G-3" value="" style="edgeStyle=orthogonalEdgeStyle;rounded=0;orthogonalLoop=1;jettySize=auto;html=1;" parent="WIyWlLk6GJQsqaUBKTNV-1" source="WIyWlLk6GJQsqaUBKTNV-3" target="iwHmXx7_K-lUzod9Qs7G-2" edge="1">
          <mxGeometry relative="1" as="geometry" />
        </mxCell>
        <mxCell id="WIyWlLk6GJQsqaUBKTNV-3" value="Xem danh sách Menu" style="rounded=1;whiteSpace=wrap;html=1;fontSize=12;glass=0;strokeWidth=1;shadow=0;" parent="WIyWlLk6GJQsqaUBKTNV-1" vertex="1">
          <mxGeometry x="160" y="80" width="120" height="40" as="geometry" />
        </mxCell>
        <mxCell id="h6kX4IqX7ca_rpu67p18-0" value="" style="edgeStyle=orthogonalEdgeStyle;rounded=0;orthogonalLoop=1;jettySize=auto;html=1;" edge="1" parent="WIyWlLk6GJQsqaUBKTNV-1" source="iwHmXx7_K-lUzod9Qs7G-0" target="WIyWlLk6GJQsqaUBKTNV-3">
          <mxGeometry relative="1" as="geometry" />
        </mxCell>
        <mxCell id="iwHmXx7_K-lUzod9Qs7G-0" value="" style="strokeWidth=2;html=1;shape=mxgraph.flowchart.start_2;whiteSpace=wrap;" parent="WIyWlLk6GJQsqaUBKTNV-1" vertex="1">
          <mxGeometry x="195" y="10" width="50" height="50" as="geometry" />
        </mxCell>
        <mxCell id="iwHmXx7_K-lUzod9Qs7G-1" value="" style="strokeWidth=2;html=1;shape=mxgraph.flowchart.start_2;whiteSpace=wrap;" parent="WIyWlLk6GJQsqaUBKTNV-1" vertex="1">
          <mxGeometry x="210" y="600" width="50" height="50" as="geometry" />
        </mxCell>
        <mxCell id="iwHmXx7_K-lUzod9Qs7G-7" value="" style="edgeStyle=orthogonalEdgeStyle;rounded=0;orthogonalLoop=1;jettySize=auto;html=1;" parent="WIyWlLk6GJQsqaUBKTNV-1" source="iwHmXx7_K-lUzod9Qs7G-2" target="iwHmXx7_K-lUzod9Qs7G-6" edge="1">
          <mxGeometry relative="1" as="geometry" />
        </mxCell>
        <mxCell id="iwHmXx7_K-lUzod9Qs7G-2" value="Cập nhật" style="rounded=1;whiteSpace=wrap;html=1;fontSize=12;glass=0;strokeWidth=1;shadow=0;" parent="WIyWlLk6GJQsqaUBKTNV-1" vertex="1">
          <mxGeometry x="160" y="170" width="120" height="40" as="geometry" />
        </mxCell>
        <mxCell id="iwHmXx7_K-lUzod9Qs7G-10" value="" style="edgeStyle=orthogonalEdgeStyle;rounded=0;orthogonalLoop=1;jettySize=auto;html=1;" parent="WIyWlLk6GJQsqaUBKTNV-1" source="iwHmXx7_K-lUzod9Qs7G-6" target="iwHmXx7_K-lUzod9Qs7G-8" edge="1">
          <mxGeometry relative="1" as="geometry" />
        </mxCell>
        <mxCell id="iwHmXx7_K-lUzod9Qs7G-6" value="Nhập dữ liệu" style="rounded=1;whiteSpace=wrap;html=1;fontSize=12;glass=0;strokeWidth=1;shadow=0;" parent="WIyWlLk6GJQsqaUBKTNV-1" vertex="1">
          <mxGeometry x="160" y="260" width="120" height="40" as="geometry" />
        </mxCell>
        <mxCell id="iwHmXx7_K-lUzod9Qs7G-13" style="edgeStyle=orthogonalEdgeStyle;rounded=0;orthogonalLoop=1;jettySize=auto;html=1;entryX=0.25;entryY=0;entryDx=0;entryDy=0;" parent="WIyWlLk6GJQsqaUBKTNV-1" source="iwHmXx7_K-lUzod9Qs7G-8" target="iwHmXx7_K-lUzod9Qs7G-12" edge="1">
          <mxGeometry relative="1" as="geometry" />
        </mxCell>
        <mxCell id="iwHmXx7_K-lUzod9Qs7G-14" value="Thành công" style="edgeLabel;html=1;align=center;verticalAlign=middle;resizable=0;points=[];" parent="iwHmXx7_K-lUzod9Qs7G-13" vertex="1" connectable="0">
          <mxGeometry x="-0.2827" relative="1" as="geometry">
            <mxPoint as="offset" />
          </mxGeometry>
        </mxCell>
        <mxCell id="iwHmXx7_K-lUzod9Qs7G-15" style="edgeStyle=orthogonalEdgeStyle;rounded=0;orthogonalLoop=1;jettySize=auto;html=1;entryX=0.5;entryY=0;entryDx=0;entryDy=0;" parent="WIyWlLk6GJQsqaUBKTNV-1" source="iwHmXx7_K-lUzod9Qs7G-8" target="iwHmXx7_K-lUzod9Qs7G-11" edge="1">
          <mxGeometry relative="1" as="geometry" />
        </mxCell>
        <mxCell id="iwHmXx7_K-lUzod9Qs7G-16" value="Thất bại" style="edgeLabel;html=1;align=center;verticalAlign=middle;resizable=0;points=[];" parent="iwHmXx7_K-lUzod9Qs7G-15" vertex="1" connectable="0">
          <mxGeometry x="-0.4426" y="-4" relative="1" as="geometry">
            <mxPoint as="offset" />
          </mxGeometry>
        </mxCell>
        <mxCell id="iwHmXx7_K-lUzod9Qs7G-8" value="" style="strokeWidth=2;html=1;shape=mxgraph.flowchart.decision;whiteSpace=wrap;" parent="WIyWlLk6GJQsqaUBKTNV-1" vertex="1">
          <mxGeometry x="180" y="360" width="60" height="70" as="geometry" />
        </mxCell>
        <mxCell id="iwHmXx7_K-lUzod9Qs7G-11" value="Thông báo lỗi" style="rounded=1;whiteSpace=wrap;html=1;fontSize=12;glass=0;strokeWidth=1;shadow=0;" parent="WIyWlLk6GJQsqaUBKTNV-1" vertex="1">
          <mxGeometry x="280" y="450" width="120" height="40" as="geometry" />
        </mxCell>
        <mxCell id="iwHmXx7_K-lUzod9Qs7G-18" value="" style="edgeStyle=orthogonalEdgeStyle;rounded=0;orthogonalLoop=1;jettySize=auto;html=1;" parent="WIyWlLk6GJQsqaUBKTNV-1" source="iwHmXx7_K-lUzod9Qs7G-12" target="iwHmXx7_K-lUzod9Qs7G-17" edge="1">
          <mxGeometry relative="1" as="geometry" />
        </mxCell>
        <mxCell id="iwHmXx7_K-lUzod9Qs7G-12" value="Thông báo thành công" style="rounded=1;whiteSpace=wrap;html=1;fontSize=12;glass=0;strokeWidth=1;shadow=0;" parent="WIyWlLk6GJQsqaUBKTNV-1" vertex="1">
          <mxGeometry x="55" y="450" width="120" height="40" as="geometry" />
        </mxCell>
        <mxCell id="iwHmXx7_K-lUzod9Qs7G-17" value="Lấy lại danh sách Menu mới" style="rounded=1;whiteSpace=wrap;html=1;fontSize=12;glass=0;strokeWidth=1;shadow=0;" parent="WIyWlLk6GJQsqaUBKTNV-1" vertex="1">
          <mxGeometry x="50" y="530" width="120" height="40" as="geometry" />
        </mxCell>
        <mxCell id="iwHmXx7_K-lUzod9Qs7G-19" style="edgeStyle=orthogonalEdgeStyle;rounded=0;orthogonalLoop=1;jettySize=auto;html=1;entryX=0;entryY=0.5;entryDx=0;entryDy=0;entryPerimeter=0;" parent="WIyWlLk6GJQsqaUBKTNV-1" source="iwHmXx7_K-lUzod9Qs7G-17" target="iwHmXx7_K-lUzod9Qs7G-1" edge="1">
          <mxGeometry relative="1" as="geometry" />
        </mxCell>
        <mxCell id="iwHmXx7_K-lUzod9Qs7G-20" style="edgeStyle=orthogonalEdgeStyle;rounded=0;orthogonalLoop=1;jettySize=auto;html=1;entryX=1;entryY=0.5;entryDx=0;entryDy=0;entryPerimeter=0;" parent="WIyWlLk6GJQsqaUBKTNV-1" source="iwHmXx7_K-lUzod9Qs7G-11" target="iwHmXx7_K-lUzod9Qs7G-1" edge="1">
          <mxGeometry relative="1" as="geometry" />
        </mxCell>
      </root>
    </mxGraphModel>
  </diagram>
</mxfile>
